<svg xmlns="http://www.w3.org/2000/svg" xmlns:xlink="http://www.w3.org/1999/xlink" width="500" zoomAndPan="magnify" viewBox="0 0 375 504.749982" height="673" preserveAspectRatio="xMidYMid meet" version="1.0"><defs><g/><clipPath id="511e0ad3d8"><path d="M 0.09375 0 L 374.90625 0 L 374.90625 504.5 L 0.09375 504.5 Z M 0.09375 0 " clip-rule="nonzero"/></clipPath><clipPath id="f8abc8821b"><path d="M 128 180.898438 L 247.1875 180.898438 L 247.1875 304.585938 L 128 304.585938 Z M 128 180.898438 " clip-rule="nonzero"/></clipPath></defs><g clip-path="url(#511e0ad3d8)"><path fill="#ffffff" d="M 0.09375 0 L 374.90625 0 L 374.90625 511.246094 L 0.09375 511.246094 Z M 0.09375 0 " fill-opacity="1" fill-rule="nonzero"/><path fill="#ffffff" d="M 0.09375 0 L 374.90625 0 L 374.90625 504.5 L 0.09375 504.5 Z M 0.09375 0 " fill-opacity="1" fill-rule="nonzero"/><path fill="#9dcd5a" d="M 0.09375 0 L 374.90625 0 L 374.90625 504.5 L 0.09375 504.5 Z M 0.09375 0 " fill-opacity="1" fill-rule="nonzero"/></g><g fill="#3b6769" fill-opacity="0.4"><g transform="translate(96.214706, 122.645067)"><g><path d="M 28.742188 -6.367188 C 26.042969 -3.601562 22.570312 -2.828125 20.382812 -2.828125 C 15.882812 -2.894531 11.125 -5.402344 8.746094 -10.289062 C 20.191406 -10.417969 29.449219 -13.824219 29.449219 -21.414062 C 29.449219 -26.621094 24.820312 -29.964844 18.582031 -29.964844 C 8.746094 -29.964844 2.316406 -22.632812 2.316406 -14.019531 C 2.316406 -4.953125 9.066406 0.898438 17.167969 0.898438 C 22.183594 0.898438 26.105469 -0.898438 28.808594 -3.859375 C 30.414062 -5.464844 29.257812 -6.816406 28.742188 -6.367188 Z M 16.203125 -27.585938 C 20.253906 -27.585938 23.664062 -24.242188 23.664062 -19.804688 C 23.664062 -13.566406 15.175781 -12.21875 7.972656 -12.089844 C 7.460938 -13.761719 7.136719 -15.625 7.136719 -17.683594 C 7.136719 -23.597656 10.546875 -27.585938 16.203125 -27.585938 Z M 16.203125 -27.585938 "/></g></g></g><g fill="#3b6769" fill-opacity="0.4"><g transform="translate(128.360879, 122.645067)"><g><path d="M 26.105469 0.386719 C 26.6875 0.386719 26.878906 -0.0625 26.878906 -0.578125 C 26.75 -3.023438 26.75 -6.367188 27.328125 -10.675781 C 27.328125 -10.738281 25.59375 -11.058594 25.269531 -9.453125 C 24.304688 -2.636719 23.921875 -2.121094 20 -2.058594 L 9.582031 -1.734375 C 9.003906 -1.734375 8.875 -2.058594 9.195312 -2.507812 L 24.304688 -24.304688 C 25.527344 -26.363281 27.007812 -27.972656 27.007812 -28.613281 C 27.007812 -29 26.8125 -29.195312 26.300781 -29.195312 C 25.015625 -29.195312 21.542969 -29 20 -29 L 7.84375 -29 C 4.886719 -29 4.695312 -29.386719 3.921875 -29.386719 C 3.40625 -29.386719 3.085938 -29.128906 3.152344 -28.421875 C 3.28125 -26.363281 3.28125 -23.921875 2.894531 -20.578125 C 2.894531 -20.511719 4.5 -20.0625 4.886719 -21.605469 C 5.851562 -26.492188 6.300781 -26.941406 8.808594 -26.941406 L 18.777344 -27.265625 C 19.355469 -27.265625 19.546875 -27.070312 19.226562 -26.558594 L 2.828125 -2.699219 C 1.863281 -1.351562 1.734375 -0.964844 1.734375 -0.644531 C 1.734375 -0.128906 2.058594 0.128906 2.765625 0.128906 C 4.050781 0.128906 6.878906 0 9.195312 0 L 22.378906 0 C 24.949219 0 25.269531 0.386719 26.105469 0.386719 Z M 26.105469 0.386719 "/></g></g></g><g fill="#e1ad01" fill-opacity="1"><g transform="translate(93.372805, 119.803169)"><g><path d="M 28.742188 -6.367188 C 26.042969 -3.601562 22.570312 -2.828125 20.382812 -2.828125 C 15.882812 -2.894531 11.125 -5.402344 8.746094 -10.289062 C 20.191406 -10.417969 29.449219 -13.824219 29.449219 -21.414062 C 29.449219 -26.621094 24.820312 -29.964844 18.582031 -29.964844 C 8.746094 -29.964844 2.316406 -22.632812 2.316406 -14.019531 C 2.316406 -4.953125 9.066406 0.898438 17.167969 0.898438 C 22.183594 0.898438 26.105469 -0.898438 28.808594 -3.859375 C 30.414062 -5.464844 29.257812 -6.816406 28.742188 -6.367188 Z M 16.203125 -27.585938 C 20.253906 -27.585938 23.664062 -24.242188 23.664062 -19.804688 C 23.664062 -13.566406 15.175781 -12.21875 7.972656 -12.089844 C 7.460938 -13.761719 7.136719 -15.625 7.136719 -17.683594 C 7.136719 -23.597656 10.546875 -27.585938 16.203125 -27.585938 Z M 16.203125 -27.585938 "/></g></g></g><g fill="#e1ad01" fill-opacity="1"><g transform="translate(125.518978, 119.803169)"><g><path d="M 26.105469 0.386719 C 26.6875 0.386719 26.878906 -0.0625 26.878906 -0.578125 C 26.75 -3.023438 26.75 -6.367188 27.328125 -10.675781 C 27.328125 -10.738281 25.59375 -11.058594 25.269531 -9.453125 C 24.304688 -2.636719 23.921875 -2.121094 20 -2.058594 L 9.582031 -1.734375 C 9.003906 -1.734375 8.875 -2.058594 9.195312 -2.507812 L 24.304688 -24.304688 C 25.527344 -26.363281 27.007812 -27.972656 27.007812 -28.613281 C 27.007812 -29 26.8125 -29.195312 26.300781 -29.195312 C 25.015625 -29.195312 21.542969 -29 20 -29 L 7.84375 -29 C 4.886719 -29 4.695312 -29.386719 3.921875 -29.386719 C 3.40625 -29.386719 3.085938 -29.128906 3.152344 -28.421875 C 3.28125 -26.363281 3.28125 -23.921875 2.894531 -20.578125 C 2.894531 -20.511719 4.5 -20.0625 4.886719 -21.605469 C 5.851562 -26.492188 6.300781 -26.941406 8.808594 -26.941406 L 18.777344 -27.265625 C 19.355469 -27.265625 19.546875 -27.070312 19.226562 -26.558594 L 2.828125 -2.699219 C 1.863281 -1.351562 1.734375 -0.964844 1.734375 -0.644531 C 1.734375 -0.128906 2.058594 0.128906 2.765625 0.128906 C 4.050781 0.128906 6.878906 0 9.195312 0 L 22.378906 0 C 24.949219 0 25.269531 0.386719 26.105469 0.386719 Z M 26.105469 0.386719 "/></g></g></g><g fill="#3b6769" fill-opacity="0.4"><g transform="translate(157.157173, 122.645067)"><g><path d="M 6.558594 0 C 11.960938 0.0625 18.132812 0.449219 24.304688 0.449219 C 37.875 0.449219 45.011719 -4.371094 45.011719 -12.988281 C 45.011719 -20.511719 38.773438 -24.179688 29.644531 -24.628906 C 37.425781 -25.464844 41.347656 -29 41.347656 -35.300781 C 41.347656 -40.511719 36.523438 -45.527344 24.050781 -45.527344 C 20.125 -45.527344 11.316406 -45.078125 6.496094 -45.011719 C 5.402344 -45.011719 3.535156 -45.140625 2.507812 -45.140625 C 2.378906 -45.140625 1.609375 -43.148438 3.730469 -42.570312 C 5.660156 -42.117188 7.074219 -41.667969 7.074219 -36.523438 L 7.074219 -8.488281 C 7.074219 -3.34375 5.660156 -2.894531 3.730469 -2.445312 C 1.609375 -1.863281 2.378906 0.128906 2.507812 0.128906 C 3.535156 0.128906 5.402344 0 6.558594 0 Z M 20.449219 -25.464844 C 18.90625 -24.949219 19.804688 -22.890625 20 -22.890625 L 22.183594 -22.828125 C 29.320312 -22.761719 31.957031 -19.546875 31.957031 -12.539062 C 31.957031 -5.335938 27.714844 -2.25 22.761719 -2.25 L 20.578125 -2.25 C 18.582031 -2.25 18.199219 -2.828125 18.199219 -4.953125 L 18.199219 -40.125 C 18.199219 -42.054688 18.390625 -42.761719 20.0625 -42.761719 L 22.632812 -42.699219 C 25.851562 -42.632812 29.195312 -40.125 29.195312 -33.824219 C 29.195312 -28.230469 26.878906 -26.429688 22.441406 -25.65625 Z M 20.449219 -25.464844 "/></g></g></g><g fill="#3b6769" fill-opacity="0.4"><g transform="translate(204.090589, 122.645067)"><g><path d="M 39.417969 -6.816406 C 39.097656 -6.300781 38.710938 -5.851562 37.9375 -5.851562 C 36.78125 -5.851562 36.394531 -6.6875 36.394531 -9.132812 L 36.332031 -18.390625 C 36.332031 -22.507812 36.523438 -24.886719 36.910156 -30.03125 C 36.972656 -30.929688 35.046875 -30.992188 34.851562 -30.867188 C 32.023438 -28.808594 28.421875 -27.585938 22.507812 -26.6875 C 22.441406 -26.6875 21.671875 -24.371094 23.46875 -23.726562 C 25.59375 -23.085938 26.042969 -21.476562 26.042969 -19.484375 L 26.042969 -12.988281 C 26.042969 -8.488281 23.984375 -4.371094 20.125 -4.371094 C 16.976562 -4.371094 15.046875 -6.496094 15.046875 -11.703125 L 15.046875 -18.390625 C 15.046875 -22.507812 15.238281 -24.886719 15.625 -30.03125 C 15.691406 -30.929688 13.761719 -30.992188 13.566406 -30.867188 C 10.738281 -28.808594 7.136719 -27.585938 1.222656 -26.6875 C 1.15625 -26.6875 0.386719 -24.371094 2.1875 -23.726562 C 4.308594 -23.085938 4.757812 -21.476562 4.757812 -19.484375 L 4.757812 -11.574219 C 4.757812 -2.894531 9.386719 1.15625 15.882812 1.15625 C 21.285156 1.15625 24.628906 -1.734375 26.234375 -5.207031 C 27.007812 -0.898438 30.15625 1.027344 33.4375 1.027344 C 38.644531 1.027344 41.28125 -2.25 41.28125 -4.886719 C 41.28125 -7.136719 39.609375 -7.074219 39.417969 -6.816406 Z M 39.417969 -6.816406 "/></g></g></g><g fill="#3b6769" fill-opacity="0.4"><g transform="translate(246.330658, 122.645067)"><g><path d="M 37.554688 -29.964844 C 36.847656 -29.902344 35.238281 -29.835938 34.144531 -29.835938 L 30.867188 -29.835938 C 29.320312 -29.835938 26.941406 -29.902344 25.914062 -29.964844 C 25.335938 -29.964844 24.886719 -27.457031 27.648438 -27.199219 C 30.15625 -26.941406 29.964844 -25.269531 28.484375 -21.734375 L 23.664062 -9.773438 C 23.46875 -9.195312 23.085938 -9.195312 22.828125 -9.773438 L 17.746094 -21.796875 C 16.269531 -25.269531 16.011719 -26.941406 18.710938 -27.199219 C 21.671875 -27.457031 21.15625 -29.964844 20.578125 -29.964844 C 19.484375 -29.902344 16.976562 -29.835938 15.304688 -29.835938 L 3.921875 -29.835938 C 2.828125 -29.835938 1.222656 -29.902344 0.515625 -29.964844 C 0.128906 -29.964844 -0.191406 -27.457031 1.734375 -27.199219 C 3.472656 -26.941406 5.078125 -25.269531 6.558594 -21.734375 L 15.238281 -1.09375 C 16.332031 1.609375 16.78125 3.152344 16.78125 4.695312 C 15.691406 8.039062 14.210938 9.96875 12.601562 9.96875 C 9.132812 9.96875 8.679688 4.371094 9.386719 1.542969 C 6.042969 -0.191406 0.964844 1.929688 1.027344 6.878906 C 1.222656 11.960938 5.851562 13.761719 10.09375 13.761719 C 15.820312 13.761719 18.261719 9.453125 22.25 0.773438 L 22.378906 0.449219 L 31.574219 -21.734375 C 33.050781 -25.269531 34.59375 -26.941406 36.332031 -27.199219 C 38.261719 -27.457031 37.9375 -29.964844 37.554688 -29.964844 Z M 37.554688 -29.964844 "/></g></g></g><g fill="#ffffff" fill-opacity="1"><g transform="translate(154.315272, 119.803169)"><g><path d="M 6.558594 0 C 11.960938 0.0625 18.132812 0.449219 24.304688 0.449219 C 37.875 0.449219 45.011719 -4.371094 45.011719 -12.988281 C 45.011719 -20.511719 38.773438 -24.179688 29.644531 -24.628906 C 37.425781 -25.464844 41.347656 -29 41.347656 -35.300781 C 41.347656 -40.511719 36.523438 -45.527344 24.050781 -45.527344 C 20.125 -45.527344 11.316406 -45.078125 6.496094 -45.011719 C 5.402344 -45.011719 3.535156 -45.140625 2.507812 -45.140625 C 2.378906 -45.140625 1.609375 -43.148438 3.730469 -42.570312 C 5.660156 -42.117188 7.074219 -41.667969 7.074219 -36.523438 L 7.074219 -8.488281 C 7.074219 -3.34375 5.660156 -2.894531 3.730469 -2.445312 C 1.609375 -1.863281 2.378906 0.128906 2.507812 0.128906 C 3.535156 0.128906 5.402344 0 6.558594 0 Z M 20.449219 -25.464844 C 18.90625 -24.949219 19.804688 -22.890625 20 -22.890625 L 22.183594 -22.828125 C 29.320312 -22.761719 31.957031 -19.546875 31.957031 -12.539062 C 31.957031 -5.335938 27.714844 -2.25 22.761719 -2.25 L 20.578125 -2.25 C 18.582031 -2.25 18.199219 -2.828125 18.199219 -4.953125 L 18.199219 -40.125 C 18.199219 -42.054688 18.390625 -42.761719 20.0625 -42.761719 L 22.632812 -42.699219 C 25.851562 -42.632812 29.195312 -40.125 29.195312 -33.824219 C 29.195312 -28.230469 26.878906 -26.429688 22.441406 -25.65625 Z M 20.449219 -25.464844 "/></g></g></g><g fill="#ffffff" fill-opacity="1"><g transform="translate(201.248688, 119.803169)"><g><path d="M 39.417969 -6.816406 C 39.097656 -6.300781 38.710938 -5.851562 37.9375 -5.851562 C 36.78125 -5.851562 36.394531 -6.6875 36.394531 -9.132812 L 36.332031 -18.390625 C 36.332031 -22.507812 36.523438 -24.886719 36.910156 -30.03125 C 36.972656 -30.929688 35.046875 -30.992188 34.851562 -30.867188 C 32.023438 -28.808594 28.421875 -27.585938 22.507812 -26.6875 C 22.441406 -26.6875 21.671875 -24.371094 23.46875 -23.726562 C 25.59375 -23.085938 26.042969 -21.476562 26.042969 -19.484375 L 26.042969 -12.988281 C 26.042969 -8.488281 23.984375 -4.371094 20.125 -4.371094 C 16.976562 -4.371094 15.046875 -6.496094 15.046875 -11.703125 L 15.046875 -18.390625 C 15.046875 -22.507812 15.238281 -24.886719 15.625 -30.03125 C 15.691406 -30.929688 13.761719 -30.992188 13.566406 -30.867188 C 10.738281 -28.808594 7.136719 -27.585938 1.222656 -26.6875 C 1.15625 -26.6875 0.386719 -24.371094 2.1875 -23.726562 C 4.308594 -23.085938 4.757812 -21.476562 4.757812 -19.484375 L 4.757812 -11.574219 C 4.757812 -2.894531 9.386719 1.15625 15.882812 1.15625 C 21.285156 1.15625 24.628906 -1.734375 26.234375 -5.207031 C 27.007812 -0.898438 30.15625 1.027344 33.4375 1.027344 C 38.644531 1.027344 41.28125 -2.25 41.28125 -4.886719 C 41.28125 -7.136719 39.609375 -7.074219 39.417969 -6.816406 Z M 39.417969 -6.816406 "/></g></g></g><g fill="#ffffff" fill-opacity="1"><g transform="translate(243.488757, 119.803169)"><g><path d="M 37.554688 -29.964844 C 36.847656 -29.902344 35.238281 -29.835938 34.144531 -29.835938 L 30.867188 -29.835938 C 29.320312 -29.835938 26.941406 -29.902344 25.914062 -29.964844 C 25.335938 -29.964844 24.886719 -27.457031 27.648438 -27.199219 C 30.15625 -26.941406 29.964844 -25.269531 28.484375 -21.734375 L 23.664062 -9.773438 C 23.46875 -9.195312 23.085938 -9.195312 22.828125 -9.773438 L 17.746094 -21.796875 C 16.269531 -25.269531 16.011719 -26.941406 18.710938 -27.199219 C 21.671875 -27.457031 21.15625 -29.964844 20.578125 -29.964844 C 19.484375 -29.902344 16.976562 -29.835938 15.304688 -29.835938 L 3.921875 -29.835938 C 2.828125 -29.835938 1.222656 -29.902344 0.515625 -29.964844 C 0.128906 -29.964844 -0.191406 -27.457031 1.734375 -27.199219 C 3.472656 -26.941406 5.078125 -25.269531 6.558594 -21.734375 L 15.238281 -1.09375 C 16.332031 1.609375 16.78125 3.152344 16.78125 4.695312 C 15.691406 8.039062 14.210938 9.96875 12.601562 9.96875 C 9.132812 9.96875 8.679688 4.371094 9.386719 1.542969 C 6.042969 -0.191406 0.964844 1.929688 1.027344 6.878906 C 1.222656 11.960938 5.851562 13.761719 10.09375 13.761719 C 15.820312 13.761719 18.261719 9.453125 22.25 0.773438 L 22.378906 0.449219 L 31.574219 -21.734375 C 33.050781 -25.269531 34.59375 -26.941406 36.332031 -27.199219 C 38.261719 -27.457031 37.9375 -29.964844 37.554688 -29.964844 Z M 37.554688 -29.964844 "/></g></g></g><g clip-path="url(#f8abc8821b)"><path fill="#f2efeb" d="M 258.101562 180.929688 C 257.898438 180.933594 257.683594 180.953125 257.480469 180.988281 L 257.472656 180.988281 L 236.992188 184.46875 C 235.691406 184.691406 234.597656 185.578125 234.117188 186.804688 C 234.117188 186.808594 234.117188 186.8125 234.117188 186.816406 L 224.613281 211.058594 L 131.871094 213.359375 C 130.804688 213.386719 129.804688 213.867188 129.113281 214.664062 C 128.417969 215.464844 128.085938 216.527344 128.214844 217.585938 L 133.332031 259.71875 C 133.542969 261.488281 135.011719 262.890625 136.796875 263.027344 L 202.914062 268.261719 L 216.015625 278.515625 C 216.03125 278.527344 216.046875 278.539062 216.0625 278.550781 C 216.078125 278.558594 216.09375 278.5625 216.109375 278.574219 C 216.125 278.582031 216.136719 278.597656 216.15625 278.609375 C 218.546875 280.382812 219.140625 282.804688 218.800781 284.148438 C 218.609375 284.914062 218.3125 285.476562 217.617188 285.910156 C 216.917969 286.34375 215.710938 286.660156 213.648438 286.539062 C 213.640625 286.539062 213.632812 286.539062 213.625 286.539062 C 213.558594 286.539062 213.484375 286.539062 213.417969 286.539062 L 213.382812 286.539062 L 134.527344 286.769531 L 134.515625 286.769531 C 132.445312 286.757812 130.699219 288.484375 130.707031 290.546875 C 130.714844 292.609375 132.46875 294.332031 134.539062 294.300781 L 134.550781 294.300781 L 140.316406 294.289062 C 138.171875 295.648438 136.738281 298.023438 136.738281 300.722656 C 136.738281 304.921875 140.191406 308.359375 144.410156 308.359375 C 148.628906 308.359375 152.082031 304.921875 152.082031 300.722656 C 152.082031 298.011719 150.644531 295.609375 148.484375 294.253906 L 213.417969 294.074219 C 211.078125 295.386719 209.484375 297.875 209.484375 300.722656 C 209.484375 304.921875 212.9375 308.359375 217.15625 308.359375 C 221.375 308.359375 224.828125 304.921875 224.828125 300.722656 C 224.828125 297.078125 222.226562 294.003906 218.777344 293.261719 C 222.039062 292.113281 224.542969 289.746094 226.09375 286.128906 C 226.117188 286.085938 226.136719 286.039062 226.152344 285.992188 C 227.34375 281.257812 225.234375 276.117188 220.882812 272.769531 C 220.871094 272.757812 220.859375 272.746094 220.847656 272.734375 C 220.839844 272.726562 220.835938 272.710938 220.828125 272.699219 C 220.789062 272.65625 220.746094 272.613281 220.699219 272.574219 L 211.414062 265.328125 L 240.371094 191.53125 L 258.746094 188.417969 L 258.757812 188.417969 C 260.6875 188.109375 262.097656 186.316406 261.933594 184.375 C 261.765625 182.429688 260.0625 180.902344 258.101562 180.929688 Z M 221.816406 216.875 L 216.480469 230.496094 L 209.519531 230.496094 L 209.519531 217.183594 Z M 206.859375 217.253906 L 206.859375 230.496094 L 194.011719 230.496094 L 194.011719 217.574219 Z M 191.351562 217.628906 L 191.351562 230.496094 L 178.503906 230.496094 L 178.503906 217.949219 Z M 175.84375 218.019531 L 175.84375 230.496094 L 162.992188 230.496094 L 162.992188 218.339844 Z M 160.335938 218.410156 L 160.335938 230.496094 L 147.484375 230.496094 L 147.484375 218.730469 Z M 144.828125 218.785156 L 144.828125 230.496094 L 135.40625 230.496094 L 134.011719 219.0625 Z M 135.726562 233.128906 L 144.828125 233.128906 L 144.828125 245.089844 L 137.175781 245.089844 Z M 147.484375 233.128906 L 160.335938 233.128906 L 160.335938 245.089844 L 147.484375 245.089844 Z M 162.992188 233.128906 L 175.84375 233.128906 L 175.84375 245.089844 L 162.992188 245.089844 Z M 178.503906 233.128906 L 191.351562 233.128906 L 191.351562 245.089844 L 178.503906 245.089844 Z M 194.011719 233.128906 L 206.859375 233.128906 L 206.859375 245.089844 L 194.011719 245.089844 Z M 209.519531 233.128906 L 215.457031 233.128906 L 210.761719 245.089844 L 209.519531 245.089844 Z M 137.5 247.722656 L 144.828125 247.722656 L 144.828125 256.308594 L 138.480469 255.804688 L 137.5 247.726562 Z M 147.488281 247.722656 L 160.339844 247.722656 L 160.339844 257.535156 L 147.488281 256.515625 Z M 162.996094 247.722656 L 175.847656 247.722656 L 175.847656 258.757812 L 162.996094 257.753906 Z M 178.503906 247.722656 L 191.355469 247.722656 L 191.355469 259.996094 L 178.503906 258.976562 Z M 194.011719 247.722656 L 206.863281 247.722656 L 206.863281 255.003906 L 204.425781 261.21875 C 204.109375 261.066406 203.761719 260.972656 203.410156 260.945312 L 194.011719 260.203125 Z M 209.519531 247.722656 L 209.714844 247.722656 L 209.519531 248.261719 Z M 144.417969 296.238281 C 146.925781 296.238281 148.925781 298.230469 148.925781 300.726562 C 148.925781 303.21875 146.925781 305.199219 144.417969 305.199219 C 141.910156 305.199219 139.90625 303.21875 139.90625 300.726562 C 139.90625 298.230469 141.910156 296.238281 144.417969 296.238281 Z M 217.160156 296.238281 C 219.667969 296.238281 221.667969 298.230469 221.667969 300.726562 C 221.667969 303.21875 219.667969 305.199219 217.160156 305.199219 C 214.652344 305.199219 212.648438 303.21875 212.648438 300.726562 C 212.648438 298.230469 214.652344 296.238281 217.160156 296.238281 Z M 144.417969 298.367188 C 143.054688 298.367188 141.964844 299.449219 141.964844 300.804688 C 141.964844 302.160156 143.054688 303.230469 144.417969 303.230469 C 145.78125 303.230469 146.867188 302.160156 146.867188 300.804688 C 146.867188 299.449219 145.78125 298.367188 144.417969 298.367188 Z M 217.160156 298.367188 C 215.796875 298.367188 214.710938 299.449219 214.710938 300.804688 C 214.710938 302.160156 215.796875 303.230469 217.160156 303.230469 C 218.523438 303.230469 219.609375 302.160156 219.609375 300.804688 C 219.609375 299.449219 218.523438 298.367188 217.160156 298.367188 Z M 217.160156 298.367188 " fill-opacity="1" fill-rule="nonzero"/></g><g fill="#000000" fill-opacity="1"><g transform="translate(94.446538, 381.062412)"><g><path d="M 12.671875 -8.65625 L 10.421875 0 L 7.859375 0 L 6.484375 -5.703125 L 5.046875 0 L 2.5 0 L 0.3125 -8.65625 L 2.5625 -8.65625 L 3.8125 -2.359375 L 5.34375 -8.65625 L 7.671875 -8.65625 L 9.140625 -2.359375 L 10.40625 -8.65625 Z M 12.671875 -8.65625 "/></g></g></g><g fill="#000000" fill-opacity="1"><g transform="translate(107.422746, 381.062412)"><g><path d="M 5 -6.953125 C 5.78125 -6.953125 6.410156 -6.691406 6.890625 -6.171875 C 7.367188 -5.648438 7.609375 -4.929688 7.609375 -4.015625 L 7.609375 0 L 5.515625 0 L 5.515625 -3.734375 C 5.515625 -4.191406 5.394531 -4.546875 5.15625 -4.796875 C 4.914062 -5.054688 4.59375 -5.1875 4.1875 -5.1875 C 3.789062 -5.1875 3.472656 -5.054688 3.234375 -4.796875 C 2.992188 -4.546875 2.875 -4.191406 2.875 -3.734375 L 2.875 0 L 0.765625 0 L 0.765625 -9.125 L 2.875 -9.125 L 2.875 -5.953125 C 3.082031 -6.253906 3.367188 -6.492188 3.734375 -6.671875 C 4.109375 -6.859375 4.53125 -6.953125 5 -6.953125 Z M 5 -6.953125 "/></g></g></g><g fill="#000000" fill-opacity="1"><g transform="translate(115.736402, 381.062412)"><g><path d="M 7.25 -3.546875 C 7.25 -3.347656 7.238281 -3.144531 7.21875 -2.9375 L 2.4375 -2.9375 C 2.46875 -2.507812 2.601562 -2.179688 2.84375 -1.953125 C 3.09375 -1.722656 3.394531 -1.609375 3.75 -1.609375 C 4.269531 -1.609375 4.632812 -1.832031 4.84375 -2.28125 L 7.09375 -2.28125 C 6.976562 -1.832031 6.769531 -1.425781 6.46875 -1.0625 C 6.164062 -0.695312 5.785156 -0.410156 5.328125 -0.203125 C 4.878906 -0.00390625 4.378906 0.09375 3.828125 0.09375 C 3.148438 0.09375 2.546875 -0.046875 2.015625 -0.328125 C 1.492188 -0.617188 1.082031 -1.03125 0.78125 -1.5625 C 0.488281 -2.09375 0.34375 -2.71875 0.34375 -3.4375 C 0.34375 -4.15625 0.488281 -4.78125 0.78125 -5.3125 C 1.070312 -5.84375 1.476562 -6.253906 2 -6.546875 C 2.53125 -6.835938 3.140625 -6.984375 3.828125 -6.984375 C 4.484375 -6.984375 5.070312 -6.84375 5.59375 -6.5625 C 6.113281 -6.28125 6.519531 -5.878906 6.8125 -5.359375 C 7.101562 -4.847656 7.25 -4.242188 7.25 -3.546875 Z M 5.09375 -4.109375 C 5.09375 -4.460938 4.96875 -4.742188 4.71875 -4.953125 C 4.476562 -5.171875 4.171875 -5.28125 3.796875 -5.28125 C 3.441406 -5.28125 3.144531 -5.175781 2.90625 -4.96875 C 2.664062 -4.769531 2.515625 -4.484375 2.453125 -4.109375 Z M 5.09375 -4.109375 "/></g></g></g><g fill="#000000" fill-opacity="1"><g transform="translate(123.334641, 381.062412)"><g><path d="M 2.875 -5.734375 C 3.125 -6.109375 3.429688 -6.40625 3.796875 -6.625 C 4.171875 -6.84375 4.582031 -6.953125 5.03125 -6.953125 L 5.03125 -4.71875 L 4.453125 -4.71875 C 3.921875 -4.71875 3.523438 -4.601562 3.265625 -4.375 C 3.003906 -4.15625 2.875 -3.757812 2.875 -3.1875 L 2.875 0 L 0.765625 0 L 0.765625 -6.875 L 2.875 -6.875 Z M 2.875 -5.734375 "/></g></g></g><g fill="#000000" fill-opacity="1"><g transform="translate(128.613934, 381.062412)"><g><path d="M 7.25 -3.546875 C 7.25 -3.347656 7.238281 -3.144531 7.21875 -2.9375 L 2.4375 -2.9375 C 2.46875 -2.507812 2.601562 -2.179688 2.84375 -1.953125 C 3.09375 -1.722656 3.394531 -1.609375 3.75 -1.609375 C 4.269531 -1.609375 4.632812 -1.832031 4.84375 -2.28125 L 7.09375 -2.28125 C 6.976562 -1.832031 6.769531 -1.425781 6.46875 -1.0625 C 6.164062 -0.695312 5.785156 -0.410156 5.328125 -0.203125 C 4.878906 -0.00390625 4.378906 0.09375 3.828125 0.09375 C 3.148438 0.09375 2.546875 -0.046875 2.015625 -0.328125 C 1.492188 -0.617188 1.082031 -1.03125 0.78125 -1.5625 C 0.488281 -2.09375 0.34375 -2.71875 0.34375 -3.4375 C 0.34375 -4.15625 0.488281 -4.78125 0.78125 -5.3125 C 1.070312 -5.84375 1.476562 -6.253906 2 -6.546875 C 2.53125 -6.835938 3.140625 -6.984375 3.828125 -6.984375 C 4.484375 -6.984375 5.070312 -6.84375 5.59375 -6.5625 C 6.113281 -6.28125 6.519531 -5.878906 6.8125 -5.359375 C 7.101562 -4.847656 7.25 -4.242188 7.25 -3.546875 Z M 5.09375 -4.109375 C 5.09375 -4.460938 4.96875 -4.742188 4.71875 -4.953125 C 4.476562 -5.171875 4.171875 -5.28125 3.796875 -5.28125 C 3.441406 -5.28125 3.144531 -5.175781 2.90625 -4.96875 C 2.664062 -4.769531 2.515625 -4.484375 2.453125 -4.109375 Z M 5.09375 -4.109375 "/></g></g></g><g fill="#000000" fill-opacity="1"><g transform="translate(136.212173, 381.062412)"><g/></g></g><g fill="#000000" fill-opacity="1"><g transform="translate(138.827151, 381.062412)"><g><path d="M 3.890625 0.09375 C 3.265625 0.09375 2.695312 -0.0078125 2.1875 -0.21875 C 1.6875 -0.425781 1.285156 -0.726562 0.984375 -1.125 C 0.691406 -1.53125 0.535156 -2.019531 0.515625 -2.59375 L 2.765625 -2.59375 C 2.796875 -2.269531 2.90625 -2.023438 3.09375 -1.859375 C 3.28125 -1.691406 3.523438 -1.609375 3.828125 -1.609375 C 4.140625 -1.609375 4.382812 -1.675781 4.5625 -1.8125 C 4.75 -1.957031 4.84375 -2.160156 4.84375 -2.421875 C 4.84375 -2.628906 4.769531 -2.800781 4.625 -2.9375 C 4.476562 -3.082031 4.300781 -3.195312 4.09375 -3.28125 C 3.882812 -3.375 3.585938 -3.476562 3.203125 -3.59375 C 2.640625 -3.769531 2.179688 -3.941406 1.828125 -4.109375 C 1.484375 -4.285156 1.179688 -4.539062 0.921875 -4.875 C 0.671875 -5.21875 0.546875 -5.660156 0.546875 -6.203125 C 0.546875 -7.003906 0.835938 -7.632812 1.421875 -8.09375 C 2.003906 -8.550781 2.765625 -8.78125 3.703125 -8.78125 C 4.648438 -8.78125 5.414062 -8.550781 6 -8.09375 C 6.582031 -7.632812 6.894531 -7 6.9375 -6.1875 L 4.65625 -6.1875 C 4.644531 -6.46875 4.539062 -6.6875 4.34375 -6.84375 C 4.15625 -7.007812 3.914062 -7.09375 3.625 -7.09375 C 3.375 -7.09375 3.171875 -7.023438 3.015625 -6.890625 C 2.859375 -6.753906 2.78125 -6.554688 2.78125 -6.296875 C 2.78125 -6.015625 2.910156 -5.796875 3.171875 -5.640625 C 3.429688 -5.484375 3.84375 -5.316406 4.40625 -5.140625 C 4.957031 -4.953125 5.40625 -4.769531 5.75 -4.59375 C 6.101562 -4.425781 6.40625 -4.175781 6.65625 -3.84375 C 6.914062 -3.519531 7.046875 -3.097656 7.046875 -2.578125 C 7.046875 -2.085938 6.921875 -1.640625 6.671875 -1.234375 C 6.421875 -0.828125 6.054688 -0.503906 5.578125 -0.265625 C 5.109375 -0.0234375 4.546875 0.09375 3.890625 0.09375 Z M 3.890625 0.09375 "/></g></g></g><g fill="#000000" fill-opacity="1"><g transform="translate(146.413053, 381.062412)"><g><path d="M 4.59375 -1.78125 L 4.59375 0 L 3.53125 0 C 2.757812 0 2.160156 -0.1875 1.734375 -0.5625 C 1.304688 -0.9375 1.09375 -1.546875 1.09375 -2.390625 L 1.09375 -5.125 L 0.265625 -5.125 L 0.265625 -6.875 L 1.09375 -6.875 L 1.09375 -8.5625 L 3.203125 -8.5625 L 3.203125 -6.875 L 4.59375 -6.875 L 4.59375 -5.125 L 3.203125 -5.125 L 3.203125 -2.359375 C 3.203125 -2.160156 3.25 -2.015625 3.34375 -1.921875 C 3.445312 -1.828125 3.613281 -1.78125 3.84375 -1.78125 Z M 4.59375 -1.78125 "/></g></g></g><g fill="#000000" fill-opacity="1"><g transform="translate(151.420984, 381.062412)"><g><path d="M 7.796875 -6.875 L 3.46875 3.265625 L 1.203125 3.265625 L 2.78125 -0.234375 L -0.015625 -6.875 L 2.34375 -6.875 L 3.9375 -2.578125 L 5.515625 -6.875 Z M 7.796875 -6.875 "/></g></g></g><g fill="#000000" fill-opacity="1"><g transform="translate(159.21658, 381.062412)"><g><path d="M 2.875 -9.125 L 2.875 0 L 0.765625 0 L 0.765625 -9.125 Z M 2.875 -9.125 "/></g></g></g><g fill="#000000" fill-opacity="1"><g transform="translate(162.855345, 381.062412)"><g><path d="M 7.25 -3.546875 C 7.25 -3.347656 7.238281 -3.144531 7.21875 -2.9375 L 2.4375 -2.9375 C 2.46875 -2.507812 2.601562 -2.179688 2.84375 -1.953125 C 3.09375 -1.722656 3.394531 -1.609375 3.75 -1.609375 C 4.269531 -1.609375 4.632812 -1.832031 4.84375 -2.28125 L 7.09375 -2.28125 C 6.976562 -1.832031 6.769531 -1.425781 6.46875 -1.0625 C 6.164062 -0.695312 5.785156 -0.410156 5.328125 -0.203125 C 4.878906 -0.00390625 4.378906 0.09375 3.828125 0.09375 C 3.148438 0.09375 2.546875 -0.046875 2.015625 -0.328125 C 1.492188 -0.617188 1.082031 -1.03125 0.78125 -1.5625 C 0.488281 -2.09375 0.34375 -2.71875 0.34375 -3.4375 C 0.34375 -4.15625 0.488281 -4.78125 0.78125 -5.3125 C 1.070312 -5.84375 1.476562 -6.253906 2 -6.546875 C 2.53125 -6.835938 3.140625 -6.984375 3.828125 -6.984375 C 4.484375 -6.984375 5.070312 -6.84375 5.59375 -6.5625 C 6.113281 -6.28125 6.519531 -5.878906 6.8125 -5.359375 C 7.101562 -4.847656 7.25 -4.242188 7.25 -3.546875 Z M 5.09375 -4.109375 C 5.09375 -4.460938 4.96875 -4.742188 4.71875 -4.953125 C 4.476562 -5.171875 4.171875 -5.28125 3.796875 -5.28125 C 3.441406 -5.28125 3.144531 -5.175781 2.90625 -4.96875 C 2.664062 -4.769531 2.515625 -4.484375 2.453125 -4.109375 Z M 5.09375 -4.109375 "/></g></g></g><g fill="#000000" fill-opacity="1"><g transform="translate(170.453584, 381.062412)"><g/></g></g><g fill="#000000" fill-opacity="1"><g transform="translate(173.068563, 381.062412)"><g><path d="M 10.5625 -8.65625 L 10.5625 0 L 8.453125 0 L 8.453125 -5.1875 L 6.515625 0 L 4.8125 0 L 2.875 -5.203125 L 2.875 0 L 0.765625 0 L 0.765625 -8.65625 L 3.25 -8.65625 L 5.6875 -2.65625 L 8.09375 -8.65625 Z M 10.5625 -8.65625 "/></g></g></g><g fill="#000000" fill-opacity="1"><g transform="translate(184.391906, 381.062412)"><g><path d="M 7.25 -3.546875 C 7.25 -3.347656 7.238281 -3.144531 7.21875 -2.9375 L 2.4375 -2.9375 C 2.46875 -2.507812 2.601562 -2.179688 2.84375 -1.953125 C 3.09375 -1.722656 3.394531 -1.609375 3.75 -1.609375 C 4.269531 -1.609375 4.632812 -1.832031 4.84375 -2.28125 L 7.09375 -2.28125 C 6.976562 -1.832031 6.769531 -1.425781 6.46875 -1.0625 C 6.164062 -0.695312 5.785156 -0.410156 5.328125 -0.203125 C 4.878906 -0.00390625 4.378906 0.09375 3.828125 0.09375 C 3.148438 0.09375 2.546875 -0.046875 2.015625 -0.328125 C 1.492188 -0.617188 1.082031 -1.03125 0.78125 -1.5625 C 0.488281 -2.09375 0.34375 -2.71875 0.34375 -3.4375 C 0.34375 -4.15625 0.488281 -4.78125 0.78125 -5.3125 C 1.070312 -5.84375 1.476562 -6.253906 2 -6.546875 C 2.53125 -6.835938 3.140625 -6.984375 3.828125 -6.984375 C 4.484375 -6.984375 5.070312 -6.84375 5.59375 -6.5625 C 6.113281 -6.28125 6.519531 -5.878906 6.8125 -5.359375 C 7.101562 -4.847656 7.25 -4.242188 7.25 -3.546875 Z M 5.09375 -4.109375 C 5.09375 -4.460938 4.96875 -4.742188 4.71875 -4.953125 C 4.476562 -5.171875 4.171875 -5.28125 3.796875 -5.28125 C 3.441406 -5.28125 3.144531 -5.175781 2.90625 -4.96875 C 2.664062 -4.769531 2.515625 -4.484375 2.453125 -4.109375 Z M 5.09375 -4.109375 "/></g></g></g><g fill="#000000" fill-opacity="1"><g transform="translate(191.990145, 381.062412)"><g><path d="M 7.25 -3.546875 C 7.25 -3.347656 7.238281 -3.144531 7.21875 -2.9375 L 2.4375 -2.9375 C 2.46875 -2.507812 2.601562 -2.179688 2.84375 -1.953125 C 3.09375 -1.722656 3.394531 -1.609375 3.75 -1.609375 C 4.269531 -1.609375 4.632812 -1.832031 4.84375 -2.28125 L 7.09375 -2.28125 C 6.976562 -1.832031 6.769531 -1.425781 6.46875 -1.0625 C 6.164062 -0.695312 5.785156 -0.410156 5.328125 -0.203125 C 4.878906 -0.00390625 4.378906 0.09375 3.828125 0.09375 C 3.148438 0.09375 2.546875 -0.046875 2.015625 -0.328125 C 1.492188 -0.617188 1.082031 -1.03125 0.78125 -1.5625 C 0.488281 -2.09375 0.34375 -2.71875 0.34375 -3.4375 C 0.34375 -4.15625 0.488281 -4.78125 0.78125 -5.3125 C 1.070312 -5.84375 1.476562 -6.253906 2 -6.546875 C 2.53125 -6.835938 3.140625 -6.984375 3.828125 -6.984375 C 4.484375 -6.984375 5.070312 -6.84375 5.59375 -6.5625 C 6.113281 -6.28125 6.519531 -5.878906 6.8125 -5.359375 C 7.101562 -4.847656 7.25 -4.242188 7.25 -3.546875 Z M 5.09375 -4.109375 C 5.09375 -4.460938 4.96875 -4.742188 4.71875 -4.953125 C 4.476562 -5.171875 4.171875 -5.28125 3.796875 -5.28125 C 3.441406 -5.28125 3.144531 -5.175781 2.90625 -4.96875 C 2.664062 -4.769531 2.515625 -4.484375 2.453125 -4.109375 Z M 5.09375 -4.109375 "/></g></g></g><g fill="#000000" fill-opacity="1"><g transform="translate(199.588384, 381.062412)"><g><path d="M 4.59375 -1.78125 L 4.59375 0 L 3.53125 0 C 2.757812 0 2.160156 -0.1875 1.734375 -0.5625 C 1.304688 -0.9375 1.09375 -1.546875 1.09375 -2.390625 L 1.09375 -5.125 L 0.265625 -5.125 L 0.265625 -6.875 L 1.09375 -6.875 L 1.09375 -8.5625 L 3.203125 -8.5625 L 3.203125 -6.875 L 4.59375 -6.875 L 4.59375 -5.125 L 3.203125 -5.125 L 3.203125 -2.359375 C 3.203125 -2.160156 3.25 -2.015625 3.34375 -1.921875 C 3.445312 -1.828125 3.613281 -1.78125 3.84375 -1.78125 Z M 4.59375 -1.78125 "/></g></g></g><g fill="#000000" fill-opacity="1"><g transform="translate(204.596314, 381.062412)"><g><path d="M 3.5625 0.09375 C 2.957031 0.09375 2.421875 -0.00390625 1.953125 -0.203125 C 1.484375 -0.410156 1.113281 -0.691406 0.84375 -1.046875 C 0.570312 -1.410156 0.421875 -1.8125 0.390625 -2.25 L 2.484375 -2.25 C 2.503906 -2.019531 2.613281 -1.828125 2.8125 -1.671875 C 3.007812 -1.523438 3.25 -1.453125 3.53125 -1.453125 C 3.800781 -1.453125 4.003906 -1.503906 4.140625 -1.609375 C 4.285156 -1.710938 4.359375 -1.847656 4.359375 -2.015625 C 4.359375 -2.210938 4.253906 -2.359375 4.046875 -2.453125 C 3.847656 -2.546875 3.519531 -2.648438 3.0625 -2.765625 C 2.5625 -2.878906 2.144531 -3 1.8125 -3.125 C 1.488281 -3.25 1.207031 -3.445312 0.96875 -3.71875 C 0.726562 -4 0.609375 -4.375 0.609375 -4.84375 C 0.609375 -5.238281 0.71875 -5.597656 0.9375 -5.921875 C 1.15625 -6.242188 1.476562 -6.5 1.90625 -6.6875 C 2.332031 -6.882812 2.835938 -6.984375 3.421875 -6.984375 C 4.273438 -6.984375 4.953125 -6.769531 5.453125 -6.34375 C 5.953125 -5.914062 6.238281 -5.347656 6.3125 -4.640625 L 4.359375 -4.640625 C 4.328125 -4.878906 4.222656 -5.066406 4.046875 -5.203125 C 3.867188 -5.335938 3.640625 -5.40625 3.359375 -5.40625 C 3.109375 -5.40625 2.914062 -5.359375 2.78125 -5.265625 C 2.65625 -5.171875 2.59375 -5.039062 2.59375 -4.875 C 2.59375 -4.6875 2.695312 -4.539062 2.90625 -4.4375 C 3.113281 -4.34375 3.441406 -4.242188 3.890625 -4.140625 C 4.390625 -4.003906 4.800781 -3.875 5.125 -3.75 C 5.445312 -3.625 5.726562 -3.421875 5.96875 -3.140625 C 6.21875 -2.859375 6.34375 -2.476562 6.34375 -2 C 6.34375 -1.59375 6.226562 -1.226562 6 -0.90625 C 5.78125 -0.59375 5.457031 -0.347656 5.03125 -0.171875 C 4.613281 0.00390625 4.125 0.09375 3.5625 0.09375 Z M 3.5625 0.09375 "/></g></g></g><g fill="#000000" fill-opacity="1"><g transform="translate(211.479132, 381.062412)"><g/></g></g><g fill="#000000" fill-opacity="1"><g transform="translate(214.094115, 381.062412)"><g><path d="M 3.890625 0.09375 C 3.265625 0.09375 2.695312 -0.0078125 2.1875 -0.21875 C 1.6875 -0.425781 1.285156 -0.726562 0.984375 -1.125 C 0.691406 -1.53125 0.535156 -2.019531 0.515625 -2.59375 L 2.765625 -2.59375 C 2.796875 -2.269531 2.90625 -2.023438 3.09375 -1.859375 C 3.28125 -1.691406 3.523438 -1.609375 3.828125 -1.609375 C 4.140625 -1.609375 4.382812 -1.675781 4.5625 -1.8125 C 4.75 -1.957031 4.84375 -2.160156 4.84375 -2.421875 C 4.84375 -2.628906 4.769531 -2.800781 4.625 -2.9375 C 4.476562 -3.082031 4.300781 -3.195312 4.09375 -3.28125 C 3.882812 -3.375 3.585938 -3.476562 3.203125 -3.59375 C 2.640625 -3.769531 2.179688 -3.941406 1.828125 -4.109375 C 1.484375 -4.285156 1.179688 -4.539062 0.921875 -4.875 C 0.671875 -5.21875 0.546875 -5.660156 0.546875 -6.203125 C 0.546875 -7.003906 0.835938 -7.632812 1.421875 -8.09375 C 2.003906 -8.550781 2.765625 -8.78125 3.703125 -8.78125 C 4.648438 -8.78125 5.414062 -8.550781 6 -8.09375 C 6.582031 -7.632812 6.894531 -7 6.9375 -6.1875 L 4.65625 -6.1875 C 4.644531 -6.46875 4.539062 -6.6875 4.34375 -6.84375 C 4.15625 -7.007812 3.914062 -7.09375 3.625 -7.09375 C 3.375 -7.09375 3.171875 -7.023438 3.015625 -6.890625 C 2.859375 -6.753906 2.78125 -6.554688 2.78125 -6.296875 C 2.78125 -6.015625 2.910156 -5.796875 3.171875 -5.640625 C 3.429688 -5.484375 3.84375 -5.316406 4.40625 -5.140625 C 4.957031 -4.953125 5.40625 -4.769531 5.75 -4.59375 C 6.101562 -4.425781 6.40625 -4.175781 6.65625 -3.84375 C 6.914062 -3.519531 7.046875 -3.097656 7.046875 -2.578125 C 7.046875 -2.085938 6.921875 -1.640625 6.671875 -1.234375 C 6.421875 -0.828125 6.054688 -0.503906 5.578125 -0.265625 C 5.109375 -0.0234375 4.546875 0.09375 3.890625 0.09375 Z M 3.890625 0.09375 "/></g></g></g><g fill="#000000" fill-opacity="1"><g transform="translate(221.680017, 381.062412)"><g><path d="M 1.828125 -7.59375 C 1.453125 -7.59375 1.144531 -7.703125 0.90625 -7.921875 C 0.675781 -8.140625 0.5625 -8.410156 0.5625 -8.734375 C 0.5625 -9.054688 0.675781 -9.328125 0.90625 -9.546875 C 1.144531 -9.765625 1.453125 -9.875 1.828125 -9.875 C 2.179688 -9.875 2.472656 -9.765625 2.703125 -9.546875 C 2.941406 -9.328125 3.0625 -9.054688 3.0625 -8.734375 C 3.0625 -8.410156 2.941406 -8.140625 2.703125 -7.921875 C 2.472656 -7.703125 2.179688 -7.59375 1.828125 -7.59375 Z M 2.875 -6.875 L 2.875 0 L 0.765625 0 L 0.765625 -6.875 Z M 2.875 -6.875 "/></g></g></g><g fill="#000000" fill-opacity="1"><g transform="translate(225.318783, 381.062412)"><g><path d="M 9.546875 -6.953125 C 10.398438 -6.953125 11.078125 -6.691406 11.578125 -6.171875 C 12.085938 -5.660156 12.34375 -4.941406 12.34375 -4.015625 L 12.34375 0 L 10.25 0 L 10.25 -3.734375 C 10.25 -4.179688 10.128906 -4.523438 9.890625 -4.765625 C 9.660156 -5.003906 9.335938 -5.125 8.921875 -5.125 C 8.515625 -5.125 8.191406 -5.003906 7.953125 -4.765625 C 7.722656 -4.523438 7.609375 -4.179688 7.609375 -3.734375 L 7.609375 0 L 5.515625 0 L 5.515625 -3.734375 C 5.515625 -4.179688 5.394531 -4.523438 5.15625 -4.765625 C 4.925781 -5.003906 4.601562 -5.125 4.1875 -5.125 C 3.78125 -5.125 3.457031 -5.003906 3.21875 -4.765625 C 2.988281 -4.523438 2.875 -4.179688 2.875 -3.734375 L 2.875 0 L 0.765625 0 L 0.765625 -6.875 L 2.875 -6.875 L 2.875 -6.015625 C 3.082031 -6.304688 3.359375 -6.535156 3.703125 -6.703125 C 4.054688 -6.867188 4.445312 -6.953125 4.875 -6.953125 C 5.394531 -6.953125 5.859375 -6.835938 6.265625 -6.609375 C 6.671875 -6.390625 6.988281 -6.078125 7.21875 -5.671875 C 7.457031 -6.046875 7.78125 -6.351562 8.1875 -6.59375 C 8.601562 -6.832031 9.054688 -6.953125 9.546875 -6.953125 Z M 9.546875 -6.953125 "/></g></g></g><g fill="#000000" fill-opacity="1"><g transform="translate(238.381334, 381.062412)"><g><path d="M 2.875 -5.90625 C 3.082031 -6.226562 3.363281 -6.488281 3.71875 -6.6875 C 4.082031 -6.882812 4.507812 -6.984375 5 -6.984375 C 5.5625 -6.984375 6.070312 -6.835938 6.53125 -6.546875 C 6.988281 -6.253906 7.351562 -5.84375 7.625 -5.3125 C 7.894531 -4.78125 8.03125 -4.160156 8.03125 -3.453125 C 8.03125 -2.742188 7.894531 -2.117188 7.625 -1.578125 C 7.351562 -1.046875 6.988281 -0.632812 6.53125 -0.34375 C 6.070312 -0.0507812 5.5625 0.09375 5 0.09375 C 4.519531 0.09375 4.097656 -0.00390625 3.734375 -0.203125 C 3.367188 -0.398438 3.082031 -0.65625 2.875 -0.96875 L 2.875 3.28125 L 0.765625 3.28125 L 0.765625 -6.875 L 2.875 -6.875 Z M 5.875 -3.453125 C 5.875 -3.972656 5.726562 -4.382812 5.4375 -4.6875 C 5.144531 -4.988281 4.785156 -5.140625 4.359375 -5.140625 C 3.941406 -5.140625 3.585938 -4.988281 3.296875 -4.6875 C 3.003906 -4.382812 2.859375 -3.96875 2.859375 -3.4375 C 2.859375 -2.914062 3.003906 -2.5 3.296875 -2.1875 C 3.585938 -1.882812 3.941406 -1.734375 4.359375 -1.734375 C 4.785156 -1.734375 5.144531 -1.882812 5.4375 -2.1875 C 5.726562 -2.5 5.875 -2.921875 5.875 -3.453125 Z M 5.875 -3.453125 "/></g></g></g><g fill="#000000" fill-opacity="1"><g transform="translate(246.756663, 381.062412)"><g><path d="M 2.875 -9.125 L 2.875 0 L 0.765625 0 L 0.765625 -9.125 Z M 2.875 -9.125 "/></g></g></g><g fill="#000000" fill-opacity="1"><g transform="translate(250.395429, 381.062412)"><g><path d="M 1.828125 -7.59375 C 1.453125 -7.59375 1.144531 -7.703125 0.90625 -7.921875 C 0.675781 -8.140625 0.5625 -8.410156 0.5625 -8.734375 C 0.5625 -9.054688 0.675781 -9.328125 0.90625 -9.546875 C 1.144531 -9.765625 1.453125 -9.875 1.828125 -9.875 C 2.179688 -9.875 2.472656 -9.765625 2.703125 -9.546875 C 2.941406 -9.328125 3.0625 -9.054688 3.0625 -8.734375 C 3.0625 -8.410156 2.941406 -8.140625 2.703125 -7.921875 C 2.472656 -7.703125 2.179688 -7.59375 1.828125 -7.59375 Z M 2.875 -6.875 L 2.875 0 L 0.765625 0 L 0.765625 -6.875 Z M 2.875 -6.875 "/></g></g></g><g fill="#000000" fill-opacity="1"><g transform="translate(254.034185, 381.062412)"><g><path d="M 0.34375 -3.4375 C 0.34375 -4.15625 0.488281 -4.78125 0.78125 -5.3125 C 1.070312 -5.84375 1.476562 -6.253906 2 -6.546875 C 2.519531 -6.835938 3.117188 -6.984375 3.796875 -6.984375 C 4.660156 -6.984375 5.378906 -6.753906 5.953125 -6.296875 C 6.535156 -5.847656 6.914062 -5.210938 7.09375 -4.390625 L 4.859375 -4.390625 C 4.671875 -4.910156 4.304688 -5.171875 3.765625 -5.171875 C 3.378906 -5.171875 3.066406 -5.019531 2.828125 -4.71875 C 2.597656 -4.425781 2.484375 -4 2.484375 -3.4375 C 2.484375 -2.875 2.597656 -2.441406 2.828125 -2.140625 C 3.066406 -1.847656 3.378906 -1.703125 3.765625 -1.703125 C 4.304688 -1.703125 4.671875 -1.960938 4.859375 -2.484375 L 7.09375 -2.484375 C 6.914062 -1.679688 6.535156 -1.050781 5.953125 -0.59375 C 5.367188 -0.132812 4.648438 0.09375 3.796875 0.09375 C 3.117188 0.09375 2.519531 -0.046875 2 -0.328125 C 1.476562 -0.617188 1.070312 -1.03125 0.78125 -1.5625 C 0.488281 -2.09375 0.34375 -2.71875 0.34375 -3.4375 Z M 0.34375 -3.4375 "/></g></g></g><g fill="#000000" fill-opacity="1"><g transform="translate(261.496731, 381.062412)"><g><path d="M 1.828125 -7.59375 C 1.453125 -7.59375 1.144531 -7.703125 0.90625 -7.921875 C 0.675781 -8.140625 0.5625 -8.410156 0.5625 -8.734375 C 0.5625 -9.054688 0.675781 -9.328125 0.90625 -9.546875 C 1.144531 -9.765625 1.453125 -9.875 1.828125 -9.875 C 2.179688 -9.875 2.472656 -9.765625 2.703125 -9.546875 C 2.941406 -9.328125 3.0625 -9.054688 3.0625 -8.734375 C 3.0625 -8.410156 2.941406 -8.140625 2.703125 -7.921875 C 2.472656 -7.703125 2.179688 -7.59375 1.828125 -7.59375 Z M 2.875 -6.875 L 2.875 0 L 0.765625 0 L 0.765625 -6.875 Z M 2.875 -6.875 "/></g></g></g><g fill="#000000" fill-opacity="1"><g transform="translate(265.135496, 381.062412)"><g><path d="M 4.59375 -1.78125 L 4.59375 0 L 3.53125 0 C 2.757812 0 2.160156 -0.1875 1.734375 -0.5625 C 1.304688 -0.9375 1.09375 -1.546875 1.09375 -2.390625 L 1.09375 -5.125 L 0.265625 -5.125 L 0.265625 -6.875 L 1.09375 -6.875 L 1.09375 -8.5625 L 3.203125 -8.5625 L 3.203125 -6.875 L 4.59375 -6.875 L 4.59375 -5.125 L 3.203125 -5.125 L 3.203125 -2.359375 C 3.203125 -2.160156 3.25 -2.015625 3.34375 -1.921875 C 3.445312 -1.828125 3.613281 -1.78125 3.84375 -1.78125 Z M 4.59375 -1.78125 "/></g></g></g><g fill="#000000" fill-opacity="1"><g transform="translate(270.143427, 381.062412)"><g><path d="M 7.796875 -6.875 L 3.46875 3.265625 L 1.203125 3.265625 L 2.78125 -0.234375 L -0.015625 -6.875 L 2.34375 -6.875 L 3.9375 -2.578125 L 5.515625 -6.875 Z M 7.796875 -6.875 "/></g></g></g><g fill="#000000" fill-opacity="1"><g transform="translate(277.936497, 381.062412)"><g/></g></g><g fill="#000000" fill-opacity="1"><g transform="translate(134.235943, 398.331148)"><g><path d="M 6.0625 -5.203125 L 6.0625 -3.453125 L 0.640625 -3.453125 L 0.640625 -5.203125 Z M 6.0625 -5.203125 "/></g></g></g><g fill="#000000" fill-opacity="1"><g transform="translate(141.390128, 398.331148)"><g><path d="M 3.890625 0.09375 C 3.265625 0.09375 2.695312 -0.0078125 2.1875 -0.21875 C 1.6875 -0.425781 1.285156 -0.726562 0.984375 -1.125 C 0.691406 -1.53125 0.535156 -2.019531 0.515625 -2.59375 L 2.765625 -2.59375 C 2.796875 -2.269531 2.90625 -2.023438 3.09375 -1.859375 C 3.28125 -1.691406 3.523438 -1.609375 3.828125 -1.609375 C 4.140625 -1.609375 4.382812 -1.675781 4.5625 -1.8125 C 4.75 -1.957031 4.84375 -2.160156 4.84375 -2.421875 C 4.84375 -2.628906 4.769531 -2.800781 4.625 -2.9375 C 4.476562 -3.082031 4.300781 -3.195312 4.09375 -3.28125 C 3.882812 -3.375 3.585938 -3.476562 3.203125 -3.59375 C 2.640625 -3.769531 2.179688 -3.941406 1.828125 -4.109375 C 1.484375 -4.285156 1.179688 -4.539062 0.921875 -4.875 C 0.671875 -5.21875 0.546875 -5.660156 0.546875 -6.203125 C 0.546875 -7.003906 0.835938 -7.632812 1.421875 -8.09375 C 2.003906 -8.550781 2.765625 -8.78125 3.703125 -8.78125 C 4.648438 -8.78125 5.414062 -8.550781 6 -8.09375 C 6.582031 -7.632812 6.894531 -7 6.9375 -6.1875 L 4.65625 -6.1875 C 4.644531 -6.46875 4.539062 -6.6875 4.34375 -6.84375 C 4.15625 -7.007812 3.914062 -7.09375 3.625 -7.09375 C 3.375 -7.09375 3.171875 -7.023438 3.015625 -6.890625 C 2.859375 -6.753906 2.78125 -6.554688 2.78125 -6.296875 C 2.78125 -6.015625 2.910156 -5.796875 3.171875 -5.640625 C 3.429688 -5.484375 3.84375 -5.316406 4.40625 -5.140625 C 4.957031 -4.953125 5.40625 -4.769531 5.75 -4.59375 C 6.101562 -4.425781 6.40625 -4.175781 6.65625 -3.84375 C 6.914062 -3.519531 7.046875 -3.097656 7.046875 -2.578125 C 7.046875 -2.085938 6.921875 -1.640625 6.671875 -1.234375 C 6.421875 -0.828125 6.054688 -0.503906 5.578125 -0.265625 C 5.109375 -0.0234375 4.546875 0.09375 3.890625 0.09375 Z M 3.890625 0.09375 "/></g></g></g><g fill="#000000" fill-opacity="1"><g transform="translate(148.97603, 398.331148)"><g><path d="M 5 -6.953125 C 5.78125 -6.953125 6.410156 -6.691406 6.890625 -6.171875 C 7.367188 -5.648438 7.609375 -4.929688 7.609375 -4.015625 L 7.609375 0 L 5.515625 0 L 5.515625 -3.734375 C 5.515625 -4.191406 5.394531 -4.546875 5.15625 -4.796875 C 4.914062 -5.054688 4.59375 -5.1875 4.1875 -5.1875 C 3.789062 -5.1875 3.472656 -5.054688 3.234375 -4.796875 C 2.992188 -4.546875 2.875 -4.191406 2.875 -3.734375 L 2.875 0 L 0.765625 0 L 0.765625 -9.125 L 2.875 -9.125 L 2.875 -5.953125 C 3.082031 -6.253906 3.367188 -6.492188 3.734375 -6.671875 C 4.109375 -6.859375 4.53125 -6.953125 5 -6.953125 Z M 5 -6.953125 "/></g></g></g><g fill="#000000" fill-opacity="1"><g transform="translate(157.289686, 398.331148)"><g><path d="M 3.890625 0.09375 C 3.222656 0.09375 2.617188 -0.046875 2.078125 -0.328125 C 1.535156 -0.617188 1.109375 -1.03125 0.796875 -1.5625 C 0.492188 -2.09375 0.34375 -2.71875 0.34375 -3.4375 C 0.34375 -4.144531 0.5 -4.765625 0.8125 -5.296875 C 1.125 -5.835938 1.550781 -6.253906 2.09375 -6.546875 C 2.632812 -6.835938 3.242188 -6.984375 3.921875 -6.984375 C 4.597656 -6.984375 5.207031 -6.835938 5.75 -6.546875 C 6.289062 -6.253906 6.71875 -5.835938 7.03125 -5.296875 C 7.34375 -4.765625 7.5 -4.144531 7.5 -3.4375 C 7.5 -2.726562 7.335938 -2.101562 7.015625 -1.5625 C 6.703125 -1.03125 6.269531 -0.617188 5.71875 -0.328125 C 5.175781 -0.046875 4.566406 0.09375 3.890625 0.09375 Z M 3.890625 -1.71875 C 4.296875 -1.71875 4.640625 -1.863281 4.921875 -2.15625 C 5.203125 -2.457031 5.34375 -2.882812 5.34375 -3.4375 C 5.34375 -3.988281 5.207031 -4.410156 4.9375 -4.703125 C 4.664062 -5.003906 4.328125 -5.15625 3.921875 -5.15625 C 3.503906 -5.15625 3.160156 -5.007812 2.890625 -4.71875 C 2.617188 -4.425781 2.484375 -4 2.484375 -3.4375 C 2.484375 -2.882812 2.617188 -2.457031 2.890625 -2.15625 C 3.160156 -1.863281 3.492188 -1.71875 3.890625 -1.71875 Z M 3.890625 -1.71875 "/></g></g></g><g fill="#000000" fill-opacity="1"><g transform="translate(165.146954, 398.331148)"><g><path d="M 2.875 -5.90625 C 3.082031 -6.226562 3.363281 -6.488281 3.71875 -6.6875 C 4.082031 -6.882812 4.507812 -6.984375 5 -6.984375 C 5.5625 -6.984375 6.070312 -6.835938 6.53125 -6.546875 C 6.988281 -6.253906 7.351562 -5.84375 7.625 -5.3125 C 7.894531 -4.78125 8.03125 -4.160156 8.03125 -3.453125 C 8.03125 -2.742188 7.894531 -2.117188 7.625 -1.578125 C 7.351562 -1.046875 6.988281 -0.632812 6.53125 -0.34375 C 6.070312 -0.0507812 5.5625 0.09375 5 0.09375 C 4.519531 0.09375 4.097656 -0.00390625 3.734375 -0.203125 C 3.367188 -0.398438 3.082031 -0.65625 2.875 -0.96875 L 2.875 3.28125 L 0.765625 3.28125 L 0.765625 -6.875 L 2.875 -6.875 Z M 5.875 -3.453125 C 5.875 -3.972656 5.726562 -4.382812 5.4375 -4.6875 C 5.144531 -4.988281 4.785156 -5.140625 4.359375 -5.140625 C 3.941406 -5.140625 3.585938 -4.988281 3.296875 -4.6875 C 3.003906 -4.382812 2.859375 -3.96875 2.859375 -3.4375 C 2.859375 -2.914062 3.003906 -2.5 3.296875 -2.1875 C 3.585938 -1.882812 3.941406 -1.734375 4.359375 -1.734375 C 4.785156 -1.734375 5.144531 -1.882812 5.4375 -2.1875 C 5.726562 -2.5 5.875 -2.921875 5.875 -3.453125 Z M 5.875 -3.453125 "/></g></g></g><g fill="#000000" fill-opacity="1"><g transform="translate(173.522283, 398.331148)"><g/></g></g><g fill="#000000" fill-opacity="1"><g transform="translate(176.137262, 398.331148)"><g><path d="M 10.640625 -6.875 L 8.78125 0 L 6.453125 0 L 5.359375 -4.46875 L 4.234375 0 L 1.921875 0 L 0.046875 -6.875 L 2.15625 -6.875 L 3.125 -1.953125 L 4.296875 -6.875 L 6.515625 -6.875 L 7.6875 -1.984375 L 8.65625 -6.875 Z M 10.640625 -6.875 "/></g></g></g><g fill="#000000" fill-opacity="1"><g transform="translate(186.819199, 398.331148)"><g><path d="M 1.828125 -7.59375 C 1.453125 -7.59375 1.144531 -7.703125 0.90625 -7.921875 C 0.675781 -8.140625 0.5625 -8.410156 0.5625 -8.734375 C 0.5625 -9.054688 0.675781 -9.328125 0.90625 -9.546875 C 1.144531 -9.765625 1.453125 -9.875 1.828125 -9.875 C 2.179688 -9.875 2.472656 -9.765625 2.703125 -9.546875 C 2.941406 -9.328125 3.0625 -9.054688 3.0625 -8.734375 C 3.0625 -8.410156 2.941406 -8.140625 2.703125 -7.921875 C 2.472656 -7.703125 2.179688 -7.59375 1.828125 -7.59375 Z M 2.875 -6.875 L 2.875 0 L 0.765625 0 L 0.765625 -6.875 Z M 2.875 -6.875 "/></g></g></g><g fill="#000000" fill-opacity="1"><g transform="translate(190.457965, 398.331148)"><g><path d="M 4.59375 -1.78125 L 4.59375 0 L 3.53125 0 C 2.757812 0 2.160156 -0.1875 1.734375 -0.5625 C 1.304688 -0.9375 1.09375 -1.546875 1.09375 -2.390625 L 1.09375 -5.125 L 0.265625 -5.125 L 0.265625 -6.875 L 1.09375 -6.875 L 1.09375 -8.5625 L 3.203125 -8.5625 L 3.203125 -6.875 L 4.59375 -6.875 L 4.59375 -5.125 L 3.203125 -5.125 L 3.203125 -2.359375 C 3.203125 -2.160156 3.25 -2.015625 3.34375 -1.921875 C 3.445312 -1.828125 3.613281 -1.78125 3.84375 -1.78125 Z M 4.59375 -1.78125 "/></g></g></g><g fill="#000000" fill-opacity="1"><g transform="translate(195.465895, 398.331148)"><g><path d="M 5 -6.953125 C 5.78125 -6.953125 6.410156 -6.691406 6.890625 -6.171875 C 7.367188 -5.648438 7.609375 -4.929688 7.609375 -4.015625 L 7.609375 0 L 5.515625 0 L 5.515625 -3.734375 C 5.515625 -4.191406 5.394531 -4.546875 5.15625 -4.796875 C 4.914062 -5.054688 4.59375 -5.1875 4.1875 -5.1875 C 3.789062 -5.1875 3.472656 -5.054688 3.234375 -4.796875 C 2.992188 -4.546875 2.875 -4.191406 2.875 -3.734375 L 2.875 0 L 0.765625 0 L 0.765625 -9.125 L 2.875 -9.125 L 2.875 -5.953125 C 3.082031 -6.253906 3.367188 -6.492188 3.734375 -6.671875 C 4.109375 -6.859375 4.53125 -6.953125 5 -6.953125 Z M 5 -6.953125 "/></g></g></g><g fill="#000000" fill-opacity="1"><g transform="translate(203.779551, 398.331148)"><g/></g></g><g fill="#000000" fill-opacity="1"><g transform="translate(206.394529, 398.331148)"><g><path d="M 2.875 -6.96875 L 2.875 -5.21875 L 5.703125 -5.21875 L 5.703125 -3.59375 L 2.875 -3.59375 L 2.875 -1.6875 L 6.0625 -1.6875 L 6.0625 0 L 0.765625 0 L 0.765625 -8.65625 L 6.0625 -8.65625 L 6.0625 -6.96875 Z M 2.875 -6.96875 "/></g></g></g><g fill="#000000" fill-opacity="1"><g transform="translate(213.067657, 398.331148)"><g><path d="M 0.34375 -3.453125 C 0.34375 -4.160156 0.472656 -4.78125 0.734375 -5.3125 C 1.003906 -5.84375 1.367188 -6.253906 1.828125 -6.546875 C 2.296875 -6.835938 2.8125 -6.984375 3.375 -6.984375 C 3.863281 -6.984375 4.289062 -6.882812 4.65625 -6.6875 C 5.019531 -6.488281 5.300781 -6.226562 5.5 -5.90625 L 5.5 -6.875 L 7.609375 -6.875 L 7.609375 0 L 5.5 0 L 5.5 -0.96875 C 5.289062 -0.65625 5.003906 -0.398438 4.640625 -0.203125 C 4.273438 -0.00390625 3.847656 0.09375 3.359375 0.09375 C 2.804688 0.09375 2.296875 -0.0507812 1.828125 -0.34375 C 1.367188 -0.632812 1.003906 -1.046875 0.734375 -1.578125 C 0.472656 -2.117188 0.34375 -2.742188 0.34375 -3.453125 Z M 5.5 -3.4375 C 5.5 -3.96875 5.351562 -4.382812 5.0625 -4.6875 C 4.769531 -4.988281 4.414062 -5.140625 4 -5.140625 C 3.570312 -5.140625 3.210938 -4.988281 2.921875 -4.6875 C 2.628906 -4.382812 2.484375 -3.972656 2.484375 -3.453125 C 2.484375 -2.921875 2.628906 -2.5 2.921875 -2.1875 C 3.210938 -1.882812 3.570312 -1.734375 4 -1.734375 C 4.414062 -1.734375 4.769531 -1.882812 5.0625 -2.1875 C 5.351562 -2.5 5.5 -2.914062 5.5 -3.4375 Z M 5.5 -3.4375 "/></g></g></g><g fill="#000000" fill-opacity="1"><g transform="translate(221.442981, 398.331148)"><g><path d="M 3.5625 0.09375 C 2.957031 0.09375 2.421875 -0.00390625 1.953125 -0.203125 C 1.484375 -0.410156 1.113281 -0.691406 0.84375 -1.046875 C 0.570312 -1.410156 0.421875 -1.8125 0.390625 -2.25 L 2.484375 -2.25 C 2.503906 -2.019531 2.613281 -1.828125 2.8125 -1.671875 C 3.007812 -1.523438 3.25 -1.453125 3.53125 -1.453125 C 3.800781 -1.453125 4.003906 -1.503906 4.140625 -1.609375 C 4.285156 -1.710938 4.359375 -1.847656 4.359375 -2.015625 C 4.359375 -2.210938 4.253906 -2.359375 4.046875 -2.453125 C 3.847656 -2.546875 3.519531 -2.648438 3.0625 -2.765625 C 2.5625 -2.878906 2.144531 -3 1.8125 -3.125 C 1.488281 -3.25 1.207031 -3.445312 0.96875 -3.71875 C 0.726562 -4 0.609375 -4.375 0.609375 -4.84375 C 0.609375 -5.238281 0.71875 -5.597656 0.9375 -5.921875 C 1.15625 -6.242188 1.476562 -6.5 1.90625 -6.6875 C 2.332031 -6.882812 2.835938 -6.984375 3.421875 -6.984375 C 4.273438 -6.984375 4.953125 -6.769531 5.453125 -6.34375 C 5.953125 -5.914062 6.238281 -5.347656 6.3125 -4.640625 L 4.359375 -4.640625 C 4.328125 -4.878906 4.222656 -5.066406 4.046875 -5.203125 C 3.867188 -5.335938 3.640625 -5.40625 3.359375 -5.40625 C 3.109375 -5.40625 2.914062 -5.359375 2.78125 -5.265625 C 2.65625 -5.171875 2.59375 -5.039062 2.59375 -4.875 C 2.59375 -4.6875 2.695312 -4.539062 2.90625 -4.4375 C 3.113281 -4.34375 3.441406 -4.242188 3.890625 -4.140625 C 4.390625 -4.003906 4.800781 -3.875 5.125 -3.75 C 5.445312 -3.625 5.726562 -3.421875 5.96875 -3.140625 C 6.21875 -2.859375 6.34375 -2.476562 6.34375 -2 C 6.34375 -1.59375 6.226562 -1.226562 6 -0.90625 C 5.78125 -0.59375 5.457031 -0.347656 5.03125 -0.171875 C 4.613281 0.00390625 4.125 0.09375 3.5625 0.09375 Z M 3.5625 0.09375 "/></g></g></g><g fill="#000000" fill-opacity="1"><g transform="translate(228.325799, 398.331148)"><g><path d="M 7.25 -3.546875 C 7.25 -3.347656 7.238281 -3.144531 7.21875 -2.9375 L 2.4375 -2.9375 C 2.46875 -2.507812 2.601562 -2.179688 2.84375 -1.953125 C 3.09375 -1.722656 3.394531 -1.609375 3.75 -1.609375 C 4.269531 -1.609375 4.632812 -1.832031 4.84375 -2.28125 L 7.09375 -2.28125 C 6.976562 -1.832031 6.769531 -1.425781 6.46875 -1.0625 C 6.164062 -0.695312 5.785156 -0.410156 5.328125 -0.203125 C 4.878906 -0.00390625 4.378906 0.09375 3.828125 0.09375 C 3.148438 0.09375 2.546875 -0.046875 2.015625 -0.328125 C 1.492188 -0.617188 1.082031 -1.03125 0.78125 -1.5625 C 0.488281 -2.09375 0.34375 -2.71875 0.34375 -3.4375 C 0.34375 -4.15625 0.488281 -4.78125 0.78125 -5.3125 C 1.070312 -5.84375 1.476562 -6.253906 2 -6.546875 C 2.53125 -6.835938 3.140625 -6.984375 3.828125 -6.984375 C 4.484375 -6.984375 5.070312 -6.84375 5.59375 -6.5625 C 6.113281 -6.28125 6.519531 -5.878906 6.8125 -5.359375 C 7.101562 -4.847656 7.25 -4.242188 7.25 -3.546875 Z M 5.09375 -4.109375 C 5.09375 -4.460938 4.96875 -4.742188 4.71875 -4.953125 C 4.476562 -5.171875 4.171875 -5.28125 3.796875 -5.28125 C 3.441406 -5.28125 3.144531 -5.175781 2.90625 -4.96875 C 2.664062 -4.769531 2.515625 -4.484375 2.453125 -4.109375 Z M 5.09375 -4.109375 "/></g></g></g><g fill="#000000" fill-opacity="1"><g transform="translate(235.924038, 398.331148)"><g><path d="M 3.53125 -8.96875 L 3.296875 -3.0625 L 1.5 -3.0625 L 1.25 -8.96875 Z M 2.421875 0.09375 C 2.054688 0.09375 1.753906 -0.015625 1.515625 -0.234375 C 1.285156 -0.453125 1.171875 -0.71875 1.171875 -1.03125 C 1.171875 -1.363281 1.285156 -1.640625 1.515625 -1.859375 C 1.753906 -2.078125 2.054688 -2.1875 2.421875 -2.1875 C 2.785156 -2.1875 3.082031 -2.078125 3.3125 -1.859375 C 3.550781 -1.640625 3.671875 -1.363281 3.671875 -1.03125 C 3.671875 -0.71875 3.550781 -0.453125 3.3125 -0.234375 C 3.082031 -0.015625 2.785156 0.09375 2.421875 0.09375 Z M 2.421875 0.09375 "/></g></g></g></svg>